<?xml version="1.0" encoding="UTF-8" standalone="no"?><!DOCTYPE svg PUBLIC "-//W3C//DTD SVG 1.1//EN" "http://www.w3.org/Graphics/SVG/1.1/DTD/svg11.dtd"><svg width="100%" height="100%" viewBox="0 0 723 723" version="1.1" xmlns="http://www.w3.org/2000/svg" xmlns:xlink="http://www.w3.org/1999/xlink" xml:space="preserve" xmlns:serif="http://www.serif.com/" style="fill-rule:evenodd;clip-rule:evenodd;stroke-linejoin:round;stroke-miterlimit:2;"><path d="M184.843,361.417l0,316.24c0,11.982 -4.977,23.473 -13.837,31.945c-8.86,8.472 -20.877,13.232 -33.407,13.232c-12.53,0 -24.547,-4.76 -33.407,-13.232c-8.86,-8.472 -13.837,-19.963 -13.837,-31.945l-0,-632.25c-0,-25.078 21.26,-45.408 47.485,-45.408l147.049,0c49.115,0 88.93,38.073 88.93,85.039l0,191.339c-0,46.966 -39.815,85.039 -88.93,85.039l-100.046,0Zm0,-293.994l0,226.57l29.538,0c49.115,-0 88.93,-38.073 88.93,-85.039l0,-56.491c0,-46.966 -39.815,-85.039 -88.93,-85.039l-29.538,-0Z"/><path d="M462.506,496.063l-170.288,-0c-31.253,-0 -56.588,-25.335 -56.588,-56.588l0,-0.21c-0,-31.253 25.335,-56.588 56.588,-56.588l226.876,-0l0,-337.5c-0,-11.982 5.973,-23.473 16.605,-31.945c10.632,-8.472 25.052,-13.232 40.088,-13.232c15.036,-0 29.456,4.76 40.088,13.232c10.632,8.472 16.605,19.963 16.605,31.945l0,632.25c0,25.078 -25.512,45.408 -56.982,45.408l-283.28,0c-31.253,-0 -56.588,-25.335 -56.588,-56.588l0,-0.21c-0,-31.253 25.335,-56.588 56.588,-56.588l170.288,0c31.253,-0 56.588,-25.335 56.588,-56.588l0,-0.21c0,-31.253 -25.335,-56.588 -56.588,-56.588Z" style="fill:#f00;"/></svg>